<?xml version="1.0" encoding="utf-8"?>
<!-- Generator: Adobe Illustrator 25.0.1, SVG Export Plug-In . SVG Version: 6.00 Build 0)  -->
<svg version="1.0" id="Warstwa_1" xmlns="http://www.w3.org/2000/svg" xmlns:xlink="http://www.w3.org/1999/xlink" x="0px" y="0px"
	 viewBox="0 0 2048 2048" style="enable-background:new 0 0 2048 2048;" xml:space="preserve">
<style type="text/css">
	.st0{fill:#FFFFFF;stroke:#000000;stroke-width:0.25;stroke-miterlimit:10;}
	.st1{fill:#400072;}
	.st2{clip-path:url(#SVGID_2_);fill:#400072;}
	.st3{clip-path:url(#SVGID_4_);fill:#FFFFFF;stroke:#000000;stroke-width:0.1;stroke-miterlimit:10;}
</style>
<g>
	<path class="st0" d="M-0.5,1121h174.2l346.6,668l505.7-685l496.6,685l352.5-668H2048l-487.5,927H1529l-503.5-701.4L512.2,2048
		h-31.7L-0.5,1121z"/>
</g>
<g>
	<path class="st1" d="M2048.2,1009h-174.2l-346.6-727.1L1022,1028L525.1,281.9L172.6,1009H-0.3L487.3,0h31.5l503.5,763.4L1535.5,0
		h31.7L2048.2,1009z"/>
</g>
<g>
	<defs>
		<rect id="SVGID_1_" x="-1" y="1064" width="2049" height="727"/>
	</defs>
	<clipPath id="SVGID_2_">
		<use xlink:href="#SVGID_1_"  style="overflow:visible;"/>
	</clipPath>
	<path class="st2" d="M174,1121l163,2l208.7,395.5L1007.8,893h33.4l456.7,625.5L1710,1122l165-1l-352,668l-497.4-684.8L520,1789
		L174,1121z"/>
</g>
<g>
	<defs>
		
			<rect id="SVGID_3_" x="-0.6" y="282.2" transform="matrix(-1 -1.224647e-16 1.224647e-16 -1 2047.871 1346.161)" width="2049" height="781.8"/>
	</defs>
	<clipPath id="SVGID_4_">
		<use xlink:href="#SVGID_3_"  style="overflow:visible;"/>
	</clipPath>
	<path class="st3" d="M1873.4,1009.2l-163-2.2l-208.7-429.1l-462.1,678.7h-33.4L549.5,577.9l-212.1,430.2l-165,1.1l352-724.8
		l497.4,743l505.6-743L1873.4,1009.2z"/>
</g>
<g>
</g>
<g>
</g>
<g>
</g>
<g>
</g>
<g>
</g>
<g>
</g>
<g>
</g>
<g>
</g>
<g>
</g>
<g>
</g>
<g>
</g>
<g>
</g>
<g>
</g>
<g>
</g>
<g>
</g>
</svg>
